<svg width="170" height="20" viewBox="0 0 170 20" fill="none" xmlns="http://www.w3.org/2000/svg"><path d="M99.5328 9.15406e-05C97.7304 9.15406e-05 96.163 1.0112 95.3715 2.35168C94.58 3.69216 92.3466 7.49147 91.5473 8.83196C90.7401 10.1801 91.798 11.6585 93.2086 11.6585H106.476C106.476 11.6585 104.478 15.0441 104.094 15.6876C103.71 16.331 103.083 16.668 102.401 16.668H100.34C99.6582 16.668 99.3682 15.9403 99.619 15.5037C99.8698 15.0671 100.411 14.1632 100.411 14.1632H88.3813C88.3813 14.1632 87.4487 15.7412 86.6337 17.12C85.8187 18.4988 86.908 19.9924 88.2794 19.9924H110.763C112.549 19.9924 114.14 19.0349 114.994 17.5796C115.849 16.1242 117.863 12.6925 118.733 11.2372C119.602 9.78178 118.505 8.33406 117.118 8.33406H103.851C103.851 8.33406 106.022 4.65731 106.304 4.1824C106.586 3.70748 107.228 3.30917 107.942 3.30917H110.01C110.684 3.30917 110.966 4.0292 110.755 4.40453C110.543 4.77987 109.924 5.81396 109.924 5.81396H121.938C121.938 5.81396 123.074 3.89132 123.74 2.76532C124.406 1.63165 123.576 -0.00756836 122.04 -0.00756836H99.5171L99.5328 9.15406e-05Z" fill="black"/><path d="M90.0114 9.15406e-05H67.5516C65.9216 9.15406e-05 64.2289 0.858 63.359 2.3287C62.4813 3.7994 55.3578 15.8714 54.582 17.1812C53.8062 18.4911 54.872 19.9924 56.2512 19.9924H78.7502C80.5604 19.9924 82.1513 18.989 82.9428 17.6562C83.7343 16.3233 90.9518 4.09048 91.7041 2.81893C92.4564 1.53973 91.4925 -0.00756836 90.0036 -0.00756836L90.0114 9.15406e-05ZM78.6953 4.50411C78.374 5.04797 72.3947 15.1667 72.0655 15.7335C71.7364 16.3004 71.086 16.6834 70.3963 16.6834H68.3039C67.6378 16.6834 67.3244 15.9633 67.583 15.5267C67.8416 15.0901 73.8758 4.87179 74.2441 4.25134C74.6124 3.62322 75.3099 3.33215 75.9055 3.33215H77.9979C78.6013 3.33215 79.0166 3.97558 78.6875 4.51177L78.6953 4.50411Z" fill="black"/><path d="M58.0224 0H32.6474L22.7968 16.6756H0V20C0 20 45.0371 20 46.7377 20C48.4382 20 50.0526 19.1344 50.9538 17.6254C51.8471 16.1088 53.2577 13.7189 53.8612 12.6848C54.4646 11.6584 53.8298 10.3409 52.7013 10.0038C54.347 10.0038 56.0162 9.04634 56.8312 7.67522C57.6462 6.3041 58.9393 4.09039 59.6759 2.84182C60.4204 1.59326 59.5114 0.0076599 58.0224 0.0076599V0ZM44.5512 12.8457C44.2534 13.3589 43.2347 15.0747 42.835 15.7564C42.4353 16.4305 41.7614 16.6909 41.1815 16.6909C40.6016 16.6909 34.8103 16.6909 34.8103 16.6909L37.7726 11.6737H43.8459C44.4807 11.6737 44.849 12.3324 44.5434 12.8533L44.5512 12.8457ZM49.4726 4.49636C49.1749 5.01723 48.1561 6.72539 47.7564 7.39946C47.3568 8.08119 46.6828 8.33397 46.1029 8.33397H39.7317L42.694 3.31674H48.7673C49.4021 3.31674 49.7626 3.97549 49.4648 4.49636H49.4726Z" fill="black"/><path d="M128.763 0L116.953 20H145.58L147.539 16.6756H130.926L133.888 11.666H150.502L152.469 8.33397H135.855L138.817 3.31674H169.999V0H128.763Z" fill="black"/></svg>
