<?xml version="1.0" encoding="UTF-8"?>
<svg width="230px" height="52px" viewBox="0 0 230 52" version="1.1" xmlns="http://www.w3.org/2000/svg" xmlns:xlink="http://www.w3.org/1999/xlink">
    <!-- Generator: Sketch 49.3 (51167) - http://www.bohemiancoding.com/sketch -->
    <title>Brand / Logo (Primary)</title>
    <desc>Created with Sketch.</desc>
    <defs></defs>
    <g id="Symbols" stroke="none" stroke-width="1" fill="none" fill-rule="evenodd">
        <g id="Section-/-Navigation-/-Footer-/-Tablet" transform="translate(-24.000000, -104.000000)">
            <g id="Stacked-Group-2" transform="translate(24.000000, 104.000000)">
                <g id="Stacked-Group-4">
                    <g id="Brand-/-Logo-(Primary)">
                        <g id="Group-36">
                            <g id="Group-21" transform="translate(0.000000, 14.459355)" fill="#3DCD58">
                                <path d="M9.14429066,17.6192774 L1.6115917,17.6192774 L1.6115917,3.71347097 C1.6115917,3.20269677 1.6115917,2.43024516 0.782318339,2.43024516 C0,2.43024516 0,3.14230968 0,3.71347097 L0,17.6771484 C0,18.8370839 0.150415225,18.9838581 1.34259516,18.9838581 L9.14429066,18.9838581 C9.66955017,18.9838581 10.323737,18.9838581 10.323737,18.2902452 C10.323737,17.6192774 9.66955017,17.6192774 9.14429066,17.6192774" id="Fill-1"></path>
                                <path d="M12.5080208,6.92530968 C11.7726574,6.92530968 11.7726574,7.57363226 11.7726574,8.09530968 L11.7726574,18.1078258 C11.7726574,18.6194387 11.7726574,19.2560194 12.5080208,19.2560194 C13.2211003,19.2560194 13.2211003,18.6194387 13.2211003,18.1078258 L13.2211003,8.09530968 C13.2211003,7.62982581 13.2211003,6.92530968 12.5080208,6.92530968" id="Fill-3"></path>
                                <path d="M12.5080208,2.88449032 C11.9915156,2.88449032 11.5864291,3.27868387 11.5864291,3.78190968 C11.5864291,4.27674839 11.999474,4.67932903 12.5080208,4.67932903 C13.008609,4.67932903 13.4304083,4.26836129 13.4304083,3.78190968 C13.4304083,3.28707097 13.0173633,2.88449032 12.5080208,2.88449032" id="Fill-5"></path>
                                <path d="M19.6341211,7.19805806 L18.0806263,7.19805806 L18.0806263,6.16560645 C18.0806263,4.69199355 18.2119412,3.7258 19.9612145,3.7258 C20.0280657,3.7258 20.2222526,3.74676774 20.4283772,3.76857419 C20.6504187,3.79205806 20.8796228,3.81638065 20.9655744,3.81638065 C21.3332561,3.81638065 21.5608685,3.50354194 21.5608685,3.2141871 C21.5608685,3.19992903 21.5568893,2.86444516 21.2274083,2.70425161 C20.9615952,2.57425161 20.1936021,2.42999355 19.5179273,2.42999355 C19.0117682,2.42999355 18.4904879,2.55412258 18.0495882,2.77805806 C17.5760588,3.01792903 17.2083772,3.36347742 16.9847439,3.77528387 C16.8335329,4.04450968 16.6329792,4.56367097 16.6329792,5.9618 L16.6329792,7.19805806 L15.4065779,7.19805806 C15.1781696,7.19805806 14.4841903,7.19805806 14.4841903,7.70967097 C14.4841903,8.24392903 15.1304187,8.24392903 15.4065779,8.24392903 L16.6329792,8.24392903 L16.6329792,18.1088323 C16.6329792,18.6196065 16.6329792,19.2561871 17.3683426,19.2561871 C18.0806263,19.2561871 18.0806263,18.6196065 18.0806263,18.1088323 L18.0806263,8.24392903 L19.6341211,8.24392903 C20.2469239,8.24392903 20.5565087,8.06444516 20.5565087,7.70967097 C20.5565087,7.19805806 19.9564394,7.19805806 19.6341211,7.19805806 M18.2843633,4.53431613 C18.2764048,4.55109032 18.2692422,4.56870323 18.2620796,4.58547742 C18.2692422,4.56870323 18.2764048,4.55109032 18.2843633,4.53431613" id="Fill-7"></path>
                                <path d="M31.3199516,12.2729226 C31.3199516,12.2158903 31.3111972,10.8529871 30.6387059,9.52279355 C30.2535156,8.76543871 29.7298478,8.16324516 29.0780484,7.73214839 C29.0064221,7.68434194 28.923654,7.65079355 28.8496401,7.60801935 C28.79791,7.5769871 28.7437924,7.54847097 28.6888789,7.51995484 C28.5297093,7.43692258 28.364173,7.36227742 28.191474,7.29518065 C28.1405398,7.27589032 28.0864221,7.25827742 28.0315087,7.2389871 C27.8420969,7.17440645 27.6455225,7.11905161 27.4401938,7.0746 C27.3980138,7.06537419 27.3550381,7.05782581 27.3128581,7.05027742 C27.0764913,7.0049871 26.8297785,6.97311613 26.5751073,6.95466452 C26.5520277,6.9529871 26.5281522,6.95214839 26.5042768,6.95047097 C26.3618201,6.94292258 26.2249343,6.92530968 26.0753149,6.92530968 C24.3586713,6.92530968 22.9420623,7.51072903 21.9806782,8.61782581 C21.0463529,9.69305161 20.5529273,11.2396323 20.5529273,13.0906645 C20.5529273,14.8880194 21.0192941,16.4044065 21.9010934,17.4779548 C22.3682561,18.0449226 22.9468374,18.4835677 23.623308,18.7813097 C24.3379792,19.0958258 25.1624775,19.2560194 26.0753149,19.2560194 C28.1906782,19.2560194 29.4258339,18.3686645 30.0895709,17.6255677 C30.847218,16.7767935 31.0859723,15.8802129 31.0859723,15.7015677 C31.0859723,15.3954387 30.7938962,15.0540839 30.3744844,15.0540839 C30.0776332,15.0540839 29.8078408,15.2528581 29.6852803,15.5606645 C29.2666644,16.5897613 28.6283945,17.3194387 27.7903668,17.728729 C27.2913702,17.9719548 26.7295017,18.0960839 26.1230657,18.0960839 C24.8345882,18.0960839 23.8198824,17.636471 23.1099862,16.7273097 C22.4550035,15.8894387 22.0960761,14.6917613 22.070609,13.2609226 L29.9773564,13.2609226 C30.6975986,13.2609226 31.3199516,13.2609226 31.3199516,12.2729226 Z M22.0944844,12.1026645 C22.2735502,10.6030516 23.3009896,8.08440645 26.0299516,8.08440645 C29.4138962,8.08440645 29.7059723,11.1062774 29.8006782,12.1026645 L22.0944844,12.1026645 Z" id="Fill-9"></path>
                                <path d="M38.7289758,2.43032903 C37.922782,2.43032903 37.922782,3.20278065 37.922782,3.71355484 L37.922782,17.9724581 C37.922782,18.5142645 37.922782,19.2565226 38.7520554,19.2565226 C39.5343737,19.2565226 39.5343737,18.5444581 39.5343737,17.9724581 L39.5343737,3.71355484 C39.5343737,3.14239355 39.5343737,2.43032903 38.7289758,2.43032903" id="Fill-11"></path>
                                <path d="M65.0634983,11.0734 C65.5879619,11.0734 65.8768547,10.5944968 65.8768547,10.2078516 L65.8768547,0.391593548 L64.2175121,0.391593548 L64.2175121,10.2078516 C64.2175121,10.6095935 64.5223218,11.0734 65.0634983,11.0734" id="Fill-13"></path>
                                <path d="M49.7760588,13.13 C49.6781696,13.072129 49.565955,13.0276774 49.461699,12.9756774 L49.3550554,12.9228387 C48.5639827,12.5529677 47.6296574,12.329871 46.7112491,12.1227097 C45.8238789,11.9230968 44.9842595,11.7335484 44.3619066,11.4165161 C43.6655398,11.0625806 43.3408339,10.5987742 43.3408339,9.95716129 C43.3408339,8.66387097 44.8020104,8.08516129 46.2488616,8.08516129 C47.7498304,8.08516129 48.9006263,8.70832258 49.252391,9.71141935 C49.461699,10.3245161 49.6272353,10.4234839 49.9400035,10.4234839 C50.5981696,10.4234839 50.6053322,9.82716129 50.6053322,9.82129032 C50.6053322,9.66780645 50.4891384,8.95993548 49.9201073,8.294 C49.5755052,7.89393548 49.1290346,7.57522581 48.588654,7.34793548 C47.9217336,7.06696774 47.1107647,6.92522581 46.1796228,6.92522581 C44.5576851,6.92522581 43.3623218,7.38903226 42.6269585,8.30322581 C41.9504879,9.14193548 41.9170623,10.0552903 41.9170623,10.2297419 C41.9170623,11.0927742 42.3380657,11.9029677 43.0431869,12.3969677 C43.7618374,12.8976774 44.5051592,13.0889032 45.9870277,13.4688387 C46.3889308,13.5711613 46.8441557,13.6885806 47.3686194,13.8286452 L47.4306955,13.8454194 C48.2376851,14.0584516 49.7410415,14.4551613 49.7410415,15.8826452 C49.7410415,16.9847097 48.7271315,18.096 46.4597612,18.096 C44.8147439,18.096 43.6933945,17.4334194 43.1299343,16.1275484 L43.115609,16.0923226 C42.9596228,15.7216129 42.8100035,15.371871 42.3961626,15.371871 C42.2266471,15.371871 42.0507647,15.4356129 41.9154706,15.5471613 C41.7666471,15.6704516 41.683083,15.8381935 41.683083,16.0193548 C41.683083,16.6903226 42.2155052,17.6305161 42.9500727,18.2536774 C43.3105917,18.5631613 43.6941903,18.7820645 44.1581696,18.9430968 C44.7654014,19.1536129 45.4872353,19.2559355 46.3666471,19.2559355 C48.23291,19.2559355 49.5977889,18.777871 50.4246747,17.8351613 C51.1568547,16.9998065 51.2356436,16.0487097 51.2356436,15.6788387 C51.2356436,14.5449032 50.7581349,13.7120645 49.7760588,13.13" id="Fill-15"></path>
                                <path d="M83.7822353,8.1775871 C83.2561799,7.60642581 82.2685329,6.92539355 80.5502976,6.92539355 C78.29009,6.92539355 77.3462145,8.06016774 76.6617855,8.90307097 L76.6617855,8.02494194 C76.6625813,7.68694194 76.6625813,7.3028129 76.4548651,7.08390968 C76.4325813,7.06042581 76.3999516,7.05036129 76.3744844,7.03190968 C76.3657301,7.02603871 76.3561799,7.02016774 76.3474256,7.01429677 C76.240782,6.9472 76.1166298,6.90274839 75.9495017,6.90274839 C75.2133426,6.90274839 75.2133426,7.57874839 75.2133426,8.07274839 L75.2133426,18.0852645 C75.2133426,18.6337806 75.2133426,19.2561032 75.9495017,19.2561032 C76.1166298,19.2561032 76.240782,19.2108129 76.3474256,19.1437161 C76.3561799,19.1378452 76.3657301,19.1319742 76.3744844,19.1261032 C76.3999516,19.1076516 76.4325813,19.0975871 76.4548651,19.0741032 C76.6625813,18.8552 76.6625813,18.4719097 76.6617855,18.1322323 L76.6617855,13.8623613 C76.6617855,11.9559742 76.7222699,10.9797161 77.0811972,10.2349419 C77.3836194,9.61513548 77.8722699,9.0875871 78.4946228,8.71016774 C79.0891211,8.3512 79.7775294,8.15242581 80.4341038,8.15242581 C81.4074256,8.15242581 82.2764913,8.56674839 82.7611626,9.2612 C83.1893287,9.86255484 83.2490173,10.7700387 83.2490173,11.6599097 L83.2490173,18.1322323 C83.2482215,18.4719097 83.2474256,18.8552 83.4559377,19.0741032 C83.4774256,19.0975871 83.5100554,19.1076516 83.5347266,19.1261032 C83.5442768,19.1319742 83.553827,19.1378452 83.5633772,19.1437161 C83.6676332,19.2108129 83.7933772,19.2561032 83.961301,19.2561032 C84.6966644,19.2561032 84.6966644,18.6069419 84.6966644,18.0852645 L84.6966644,11.2967484 C84.6966644,10.6643613 84.6966644,9.1832 83.7822353,8.1775871" id="Fill-17"></path>
                                <path d="M67.3685917,2.21494839 L67.3685917,3.89823871 C70.0338858,4.87030323 71.956654,7.53572258 71.956654,10.6708194 C71.956654,14.6253355 68.903782,17.8426258 65.1513599,17.8426258 C61.3997336,17.8426258 58.3468616,14.6253355 58.3468616,10.6708194 C58.3468616,7.59610968 60.1956159,4.97430323 62.7805294,3.95694839 L62.7805294,2.25688387 C59.3384879,3.33546452 56.8188339,6.6970129 56.8188339,10.6708194 C56.8188339,15.513529 60.5561349,19.4521097 65.1513599,19.4521097 C69.7457889,19.4521097 73.4838858,15.513529 73.4838858,10.6708194 C73.4838858,6.63914194 70.8886263,3.24152903 67.3685917,2.21494839" id="Fill-19"></path>
                            </g>
                            <polygon id="Fill-22" fill="#9FA0A4" points="99.0535986 51.3625806 99.8892388 51.3625806 99.8892388 0 99.0535986 0"></polygon>
                            <polygon id="Fill-23" fill="#000000" points="137.526471 33.716129 229.391176 33.716129 229.391176 33.2003226 137.526471 33.2003226"></polygon>
                            <g id="Group-28" transform="translate(136.885813, 39.620645)">
                                <path d="M7.25415225,8.43070968 C7.40377163,8.32670968 7.53349481,8.21432258 7.63775087,8.08935484 C7.74519031,7.9643871 7.83273356,7.83606452 7.90038062,7.70103226 C7.96723183,7.56851613 8.02612457,7.43935484 8.07228374,7.31522581 L9.65044983,2.964 C9.65602076,2.9463871 9.63930796,2.91787097 9.60110727,2.88012903 C9.56211073,2.8423871 9.51276817,2.80212903 9.45069204,2.75851613 C9.38861592,2.71574194 9.31619377,2.678 9.23342561,2.64780645 C9.15145329,2.61509677 9.06550173,2.60083871 8.97716263,2.60083871 C8.84107266,2.60083871 8.71134948,2.64445161 8.58719723,2.73587097 C8.46224913,2.82645161 8.36276817,3.00174194 8.28636678,3.26258065 L7.45311419,5.8583871 L6.51321799,3.25419355 C6.43204152,2.99167742 6.33096886,2.81806452 6.21238754,2.73 C6.09539792,2.6436129 5.9616955,2.60083871 5.81446367,2.60083871 C5.71975779,2.60083871 5.63062284,2.6176129 5.54467128,2.652 C5.45951557,2.6863871 5.38391003,2.72329032 5.32342561,2.76354839 C5.26134948,2.80464516 5.21200692,2.84574194 5.17778547,2.89019355 C5.14117647,2.93296774 5.12685121,2.96483871 5.13242215,2.98329032 L6.62145329,6.62329032 C6.66204152,6.71722581 6.71456747,6.786 6.77982699,6.82877419 C6.84429066,6.87322581 6.92705882,6.90090323 7.02813149,6.91264516 C7.03370242,6.93864516 7.02813149,6.97470968 7.00903114,7.02503226 C6.99868512,7.06277419 6.97401384,7.11141935 6.93899654,7.17012903 C6.90397924,7.22883871 6.85384083,7.29929032 6.78937716,7.38064516 C6.67079585,7.50980645 6.52754325,7.5836129 6.35882353,7.59870968 C6.19089965,7.61548387 6.02377163,7.60709677 5.85903114,7.57606452 C5.66961938,7.53832258 5.47224913,7.47374194 5.26532872,7.38064516 C5.11730104,7.55425806 5.03532872,7.71277419 5.01622837,7.85619355 C4.99951557,7.99877419 5.023391,8.12374194 5.09262976,8.22858065 C5.16107266,8.33509677 5.26294118,8.424 5.39823529,8.49612903 C5.53432526,8.56574194 5.67916955,8.61941935 5.8367474,8.65380645 C5.99352941,8.68819355 6.15031142,8.70664516 6.31027682,8.71 C6.46944637,8.71251613 6.60633218,8.69909677 6.71775087,8.66890323 C6.92467128,8.61270968 7.10294118,8.53219355 7.25415225,8.43070968 Z M1.53200692,5.19496774 C1.53200692,5.35683871 1.55986159,5.50445161 1.61636678,5.63948387 C1.67128028,5.772 1.74927336,5.88774194 1.84716263,5.98419355 C1.9450519,6.07980645 2.05885813,6.15612903 2.18858131,6.20812903 C2.31910035,6.26012903 2.46155709,6.28696774 2.61595156,6.28696774 C2.953391,6.28696774 3.22477509,6.16451613 3.42771626,5.91877419 C3.63224913,5.67303226 3.73570934,5.35096774 3.73570934,4.95258065 C3.73570934,4.54245161 3.63463668,4.21535484 3.4332872,3.97296774 C3.23114187,3.73058065 2.96214533,3.60896774 2.62470588,3.60896774 C2.35809689,3.60896774 2.13207612,3.67522581 1.94982699,3.80858065 C1.76598616,3.9436129 1.6267128,4.12477419 1.53200692,4.35541935 L1.53200692,5.19496774 Z M1.53200692,6.62580645 C1.53200692,6.85896774 1.47948097,7.02167742 1.37681661,7.11141935 C1.27256055,7.20116129 1.14283737,7.24477419 0.98366782,7.24477419 L0.851557093,7.24477419 C0.680449827,7.24477419 0.542768166,7.202 0.439307958,7.1156129 C0.337439446,7.0283871 0.285709343,6.86316129 0.285709343,6.61993548 L0.285709343,0.875612903 C0.285709343,0.851290323 0.333460208,0.819419355 0.427370242,0.782516129 C0.522076125,0.745612903 0.631107266,0.726322581 0.754463668,0.726322581 C0.848373702,0.726322581 0.939896194,0.742258065 1.03301038,0.773290323 C1.12373702,0.804322581 1.20570934,0.85883871 1.27972318,0.93683871 C1.35294118,1.014 1.41342561,1.12219355 1.46117647,1.25806452 C1.50653979,1.3956129 1.53200692,1.57006452 1.53200692,1.78141935 L1.53519031,3.30283871 C1.68958478,3.07219355 1.88456747,2.89103226 2.12013841,2.75516129 C2.35650519,2.62264516 2.62788927,2.55470968 2.93588235,2.55470968 C3.22477509,2.55470968 3.49138408,2.61090323 3.73730104,2.72329032 C3.98401384,2.83651613 4.1933218,2.99419355 4.37079585,3.19967742 C4.54906574,3.406 4.68595156,3.65509677 4.78702422,3.95032258 C4.88730104,4.2463871 4.93823529,4.57516129 4.93823529,4.93580645 C4.93823529,5.29141935 4.88889273,5.616 4.79100346,5.91206452 C4.69470588,6.20812903 4.55622837,6.45974194 4.38034602,6.66774194 C4.20207612,6.87658065 3.98799308,7.03845161 3.74048443,7.15754839 C3.49138408,7.27580645 3.21761246,7.33451613 2.91598616,7.33451613 C2.57854671,7.33451613 2.29283737,7.25903226 2.05965398,7.10722581 C1.82647059,6.95290323 1.64979239,6.7683871 1.53200692,6.55116129 L1.53200692,6.62580645 Z" id="Fill-24" fill="#009530"></path>
                                <path d="M92.4953356,6.39247742 L92.4953356,7.08357419 C92.158692,7.2144129 91.8300069,7.27899355 91.5084844,7.27899355 C90.9800415,7.27899355 90.5574464,7.11460645 90.2422907,6.78415484 C89.9271349,6.45370323 89.7695571,6.01170323 89.7695571,5.45647742 C89.7695571,4.89705806 89.9239516,4.44499355 90.2311488,4.1028 C90.5391419,3.75892903 90.9426367,3.58783226 91.4464083,3.58783226 C91.6199031,3.58783226 91.777481,3.60460645 91.9167543,3.63983226 C92.054436,3.67505806 92.2263391,3.74047742 92.4316678,3.83609032 L92.4316678,4.58589677 C92.0894533,4.3544129 91.7742976,4.23783226 91.4830173,4.23783226 C91.1774118,4.23783226 90.9291073,4.35021935 90.7333287,4.57583226 C90.5375502,4.79892903 90.4404567,5.08576774 90.4404567,5.43299355 C90.4404567,5.79950968 90.5447128,6.08970323 90.7556125,6.30525161 C90.9665121,6.5208 91.2506298,6.62815484 91.6063737,6.62815484 C91.8642284,6.62815484 92.1594879,6.55015484 92.4953356,6.39247742 Z M86.9148512,7.21189677 L87.5857509,7.21189677 L87.5857509,3.66583226 L86.9148512,3.66583226 L86.9148512,7.21189677 Z M86.9793149,2.29957419 C86.9013218,2.38260645 86.8623253,2.47989677 86.8623253,2.5864129 C86.8623253,2.69796129 86.9013218,2.79525161 86.9793149,2.87912258 C87.057308,2.96299355 87.1480346,3.00409032 87.2499031,3.00409032 C87.360526,3.00409032 87.4536401,2.96299355 87.5324291,2.8808 C87.6096263,2.79776774 87.6494187,2.70047742 87.6494187,2.5864129 C87.6494187,2.47067097 87.6096263,2.37338065 87.5324291,2.29370323 C87.4536401,2.21402581 87.360526,2.17376774 87.2499031,2.17376774 C87.1480346,2.17376774 87.057308,2.21654194 86.9793149,2.29957419 Z M83.214955,3.66583226 L83.214955,4.47267097 L83.2507682,4.41060645 C83.5746782,3.86292903 83.8985882,3.58783226 84.2224983,3.58783226 C84.4755779,3.58783226 84.7390035,3.7211871 85.0143668,3.9904129 L84.6610104,4.60938065 C84.427827,4.37705806 84.2113564,4.26047742 84.0123945,4.26047742 C83.7967197,4.26047742 83.6096955,4.36950968 83.4521176,4.58505806 C83.2937439,4.80144516 83.214955,5.05809032 83.214955,5.35499355 L83.214955,7.21189677 L82.5432595,7.21189677 L82.5432595,3.66583226 L83.214955,3.66583226 Z M78.1119792,4.29402581 L78.698519,4.29402581 L78.698519,5.87247742 C78.698519,6.19454194 78.7128443,6.41176774 78.7399031,6.52750968 C78.7677578,6.6424129 78.8027751,6.73550968 78.8433633,6.80512258 C78.8847474,6.87725161 78.9372734,6.94099355 79.0009412,6.99802581 C79.2030865,7.18589677 79.4545744,7.27899355 79.7585882,7.27899355 C80.0602145,7.27899355 80.3387612,7.20434839 80.5934325,7.05338065 L80.5934325,6.40421935 C80.3300069,6.56860645 80.0801107,6.6508 79.8437439,6.6508 C79.5269965,6.6508 79.3694187,6.44699355 79.3694187,6.03938065 L79.3694187,4.29402581 L80.4231211,4.29402581 L80.4231211,3.66583226 L79.3694187,3.66583226 L79.3694187,2.92609032 L78.1119792,4.22525161 L78.1119792,4.29402581 Z M76.4072734,6.39247742 L76.4072734,7.08357419 C76.0714256,7.2144129 75.7427405,7.27899355 75.4220138,7.27899355 C74.8927751,7.27899355 74.4709758,7.11460645 74.1550242,6.78415484 C73.8406644,6.45370323 73.6822907,6.01170323 73.6822907,5.45647742 C73.6822907,4.89705806 73.8366851,4.44499355 74.1446782,4.1028 C74.4510796,3.75892903 74.8561661,3.58783226 75.358346,3.58783226 C75.5334325,3.58783226 75.6902145,3.60460645 75.8302837,3.63983226 C75.9679654,3.67505806 76.1390727,3.74047742 76.3444014,3.83609032 L76.3444014,4.58589677 C76.0029827,4.3544129 75.6870311,4.23783226 75.3957509,4.23783226 C75.091737,4.23783226 74.841045,4.35021935 74.6452664,4.57583226 C74.4502837,4.79892903 74.3531903,5.08576774 74.3531903,5.43299355 C74.3531903,5.79950968 74.4582422,6.08970323 74.6699377,6.30525161 C74.8792457,6.5208 75.1625675,6.62815484 75.5191073,6.62815484 C75.7777578,6.62815484 76.0730173,6.55015484 76.4072734,6.39247742 Z M69.6799723,4.42402581 C69.8327751,4.27138065 70.0293495,4.19421935 70.267308,4.19421935 C70.5052664,4.19421935 70.6946782,4.27138065 70.8371349,4.42402581 C70.9787958,4.57834839 71.0575848,4.7964129 71.0742976,5.08073548 L69.3815294,5.08073548 C69.4284844,4.7964129 69.5287612,4.57834839 69.6799723,4.42402581 Z M71.7340554,5.40615484 C71.7340554,4.85344516 71.6019446,4.41144516 71.3353356,4.08183226 C71.0695225,3.75221935 70.7137785,3.58783226 70.267308,3.58783226 C69.8033287,3.58783226 69.4268927,3.75725161 69.1356125,4.09692903 C68.8459239,4.43492903 68.7010796,4.87525161 68.7010796,5.41705806 C68.7010796,5.77770323 68.7695225,6.09473548 68.9064083,6.36899355 C69.0448858,6.64409032 69.2279308,6.86131613 69.4571349,7.02486452 C69.6863391,7.18673548 69.9855779,7.26809032 70.3548512,7.26809032 C70.6262353,7.26809032 70.8618062,7.23705806 71.0631557,7.17667097 C71.2629135,7.11544516 71.4658547,7.01312258 71.6703875,6.87054194 L71.6703875,6.1911871 C71.30191,6.47550968 70.8976194,6.61725161 70.460699,6.61725161 C70.1479308,6.61725161 69.8916678,6.51660645 69.6950934,6.31363871 C69.4969273,6.11067097 69.3878962,5.83892903 69.3711834,5.49505806 L71.7340554,5.49505806 L71.7340554,5.40615484 Z M65.8145398,7.21189677 L66.4854394,7.21189677 L66.4854394,1.82654194 L65.8145398,1.82654194 L65.8145398,7.21189677 Z M60.7163391,7.21189677 L63.6872388,7.21189677 L63.6872388,6.52750968 L61.4509066,6.52750968 L61.4509066,4.85512258 L63.5487612,4.85512258 L63.5487612,4.16067097 L61.4509066,4.16067097 L61.4509066,2.51092903 L63.6124291,2.51092903 L63.6124291,1.82654194 L60.7163391,1.82654194 L60.7163391,7.21189677 Z M56.5007336,2.81957419 L55.9261315,4.46009032 C55.6889689,4.22273548 55.4502145,4.10447742 55.2082768,4.10447742 C54.9894187,4.10447742 54.7992111,4.18247742 54.6400415,4.34015484 C54.4800761,4.49615484 54.3256817,4.78634839 54.1784498,5.20989677 L54.1784498,7.21189677 L52.6241592,7.21189677 L52.6241592,2.56712258 L54.1784498,2.56712258 L54.1784498,3.68596129 C54.2771349,3.41170323 54.4498339,3.14247742 54.6973426,2.8808 C54.9456471,2.61912258 55.2377232,2.48828387 55.5711834,2.48828387 C55.7470657,2.48828387 55.9022561,2.51596129 56.0327751,2.56963871 C56.1632941,2.62415484 56.3200761,2.7071871 56.5007336,2.81957419 Z M48.7173426,4.47350968 C48.7173426,4.18415484 48.7969273,3.94847742 48.9576886,3.76815484 C49.1192457,3.58783226 49.3301453,3.49809032 49.5911834,3.49809032 C49.8554048,3.49809032 50.0575502,3.58699355 50.1992111,3.76396129 C50.3384844,3.94009032 50.4093149,4.17744516 50.4093149,4.47350968 L48.7173426,4.47350968 Z M51.8681038,4.95409032 C51.8681038,4.37202581 51.7598685,3.89647742 51.5449896,3.52828387 C51.3309066,3.15925161 51.0571349,2.89421935 50.7228789,2.73150968 C50.3894187,2.56963871 50.0440208,2.48828387 49.6866851,2.48828387 C49.143917,2.48828387 48.6815294,2.59060645 48.3003183,2.79525161 C47.9199031,3.00073548 47.6341938,3.28421935 47.4463737,3.64402581 C47.2561661,4.00299355 47.1622561,4.41060645 47.1622561,4.86686452 C47.1622561,5.32899355 47.2561661,5.74163871 47.4463737,6.10647742 C47.6341938,6.47047742 47.9199031,6.75899355 48.3003183,6.97202581 C48.6815294,7.18421935 49.143917,7.28989677 49.6866851,7.28989677 C50.1880692,7.28989677 50.6011142,7.23957419 50.9274118,7.13725161 C51.2513218,7.03660645 51.5282768,6.92254194 51.7566851,6.79757419 L51.7566851,5.78105806 C51.1208028,6.09054194 50.5390381,6.24738065 50.0129827,6.24738065 C49.7121522,6.24738065 49.4431557,6.15763871 49.2059931,5.97731613 C48.9704221,5.79783226 48.8200069,5.56550968 48.7595225,5.28202581 L51.8681038,5.28202581 L51.8681038,4.95409032 Z M44.8081384,5.73912258 L44.8081384,3.96273548 C44.6258893,3.85705806 44.4826367,3.77989677 44.3799723,3.73544516 C44.277308,3.68931613 44.1571349,3.66583226 44.0170657,3.66583226 C43.7711488,3.66583226 43.5674118,3.77570323 43.4026713,3.99460645 C43.2403183,4.21434839 43.158346,4.51209032 43.158346,4.88867097 C43.158346,5.30047742 43.2435017,5.59989677 43.4154048,5.78692903 C43.5881038,5.97396129 43.7886574,6.06789677 44.0170657,6.06789677 C44.2064775,6.06789677 44.3576886,6.03686452 44.4730865,5.97312258 C44.5892803,5.91105806 44.700699,5.83389677 44.8081384,5.73912258 Z M46.3632249,7.21189677 L44.8081384,7.21189677 L44.8081384,6.79254194 C44.6433979,6.93763871 44.4691073,7.05673548 44.2852664,7.15067097 C44.1014256,7.24376774 43.848346,7.28989677 43.5252318,7.28989677 C43.2037093,7.28989677 42.8885536,7.20770323 42.5797647,7.03996129 C42.2709758,6.87221935 42.0171003,6.61221935 41.8173426,6.25828387 C41.6183806,5.90434839 41.5181038,5.45815484 41.5181038,4.92138065 C41.5181038,4.49950968 41.5937093,4.10447742 41.7433287,3.73460645 C41.8937439,3.36557419 42.1301107,3.06531613 42.4500415,2.83467097 C42.771564,2.60402581 43.163917,2.48828387 43.628692,2.48828387 C43.9183806,2.48828387 44.151564,2.52183226 44.3306298,2.58809032 C44.5104913,2.65602581 44.6688651,2.74073548 44.8081384,2.84473548 L44.8081384,0.895574194 L46.3632249,0.895574194 L46.3632249,7.21189677 Z M40.3076194,1.01047742 C40.1794879,0.873767742 40.0250934,0.805832258 39.8468235,0.805832258 C39.6661661,0.805832258 39.5125675,0.873767742 39.3876194,1.01047742 C39.2602837,1.14634839 39.1966159,1.30989677 39.1966159,1.49776774 C39.1966159,1.6244129 39.2252664,1.74099355 39.2825675,1.84583226 C39.3398685,1.95067097 39.4194533,2.03454194 39.5189343,2.09409032 C39.6168235,2.15531613 39.7258547,2.18550968 39.8468235,2.18550968 C40.0250934,2.18550968 40.1794879,2.11925161 40.3076194,1.98421935 C40.4365467,1.85170323 40.5010104,1.68815484 40.5010104,1.49776774 C40.5010104,1.30989677 40.4365467,1.14634839 40.3076194,1.01047742 Z M39.0724637,7.21189677 L40.6267543,7.21189677 L40.6267543,2.56712258 L39.0724637,2.56712258 L39.0724637,7.21189677 Z M36.7724637,4.47350968 C36.7724637,4.17744516 36.7024291,3.94009032 36.561564,3.76396129 C36.4199031,3.58699355 36.2177578,3.49809032 35.9543322,3.49809032 C35.6924983,3.49809032 35.4815986,3.58783226 35.3208374,3.76815484 C35.1600761,3.94847742 35.0796955,4.18415484 35.0796955,4.47350968 L36.7724637,4.47350968 Z M38.2304567,5.28202581 L35.1226713,5.28202581 C35.1831557,5.56550968 35.3319792,5.79783226 35.5691419,5.97731613 C35.8071003,6.15763871 36.0745052,6.24738065 36.3753356,6.24738065 C36.9021869,6.24738065 37.4831557,6.09054194 38.1182422,5.78105806 L38.1182422,6.79757419 C37.8914256,6.92254194 37.6136747,7.03660645 37.2889689,7.13725161 C36.9658547,7.23957419 36.551218,7.28989677 36.0490381,7.28989677 C35.5070657,7.28989677 35.0446782,7.18421935 34.664263,6.97202581 C34.2830519,6.75899355 33.9973426,6.47047742 33.8087266,6.10647742 C33.6193149,5.74163871 33.524609,5.32899355 33.524609,4.86686452 C33.524609,4.41060645 33.6193149,4.00299355 33.8087266,3.64402581 C33.9973426,3.28421935 34.2830519,3.00073548 34.664263,2.79525161 C35.0446782,2.59060645 35.5062699,2.48828387 36.0490381,2.48828387 C36.4071696,2.48828387 36.7525675,2.56963871 37.0852318,2.73150968 C37.4194879,2.89421935 37.6940554,3.15925161 37.9081384,3.52828387 C38.1230173,3.89647742 38.2304567,4.37202581 38.2304567,4.95409032 L38.2304567,5.28202581 Z M32.7765121,4.48609032 C32.7765121,3.15338065 32.2496609,2.48828387 31.1951626,2.48828387 C30.8935363,2.48828387 30.618173,2.54363871 30.3714602,2.6551871 C30.1255433,2.76589677 29.8796263,2.95963871 29.6360969,3.2364129 L29.6360969,2.56712258 L28.0810104,2.56712258 L28.0810104,7.21189677 L29.6360969,7.21189677 L29.6360969,4.48609032 C29.6902145,4.40389677 29.7435363,4.32589677 29.7952664,4.25376774 C29.8469965,4.17996129 29.9114602,4.10447742 29.9878616,4.0248 C30.0650588,3.9468 30.1510104,3.88138065 30.247308,3.83189677 C30.3428097,3.78073548 30.4550242,3.75557419 30.581564,3.75557419 C30.8497647,3.75557419 31.0240554,3.8511871 31.1028443,4.04157419 C31.1816332,4.23112258 31.2222215,4.45421935 31.2222215,4.7091871 L31.2222215,4.80396129 L31.2222215,7.21189677 L32.7765121,7.21189677 L32.7765121,4.48609032 Z M27.1411142,7.21189677 L25.5868235,7.21189677 L25.5868235,4.80396129 C25.5868235,4.78634839 25.5868235,4.76873548 25.5884152,4.75196129 C25.5900069,4.7351871 25.5915986,4.69996129 25.5915986,4.64544516 C25.5915986,4.42402581 25.5454394,4.22021935 25.4563045,4.03486452 C25.3671696,3.84867097 25.1968581,3.75557419 24.9461661,3.75557419 C24.7503875,3.75557419 24.5768927,3.82602581 24.4272734,3.96357419 C24.277654,4.10196129 24.1351972,4.2764129 24.000699,4.48609032 L24.000699,7.21189677 L22.4448166,7.21189677 L22.4448166,0.895574194 L24.000699,0.895574194 L24.000699,3.2364129 C24.2553702,2.94705806 24.5092457,2.7508 24.7599377,2.64512258 C25.0106298,2.54112258 25.2772388,2.48828387 25.5597647,2.48828387 C26.6134671,2.48828387 27.1411142,3.11312258 27.1411142,4.3628 L27.1411142,7.21189677 Z M21.6823945,5.70557419 C21.3966851,5.79783226 21.1555433,5.86828387 20.9565813,5.91525161 C20.7576194,5.96473548 20.5801453,5.98905806 20.4241592,5.98905806 C20.2602145,5.98905806 20.095474,5.94963871 19.9315294,5.8708 C19.7667889,5.79112258 19.6314948,5.66699355 19.5256471,5.49925161 C19.4190035,5.32983226 19.3648858,5.12267097 19.3648858,4.87525161 C19.3648858,4.50454194 19.4723253,4.23028387 19.688,4.05499355 C19.902083,3.87802581 20.1472042,3.78912258 20.4241592,3.78912258 C20.7098685,3.78912258 21.1062007,3.87467097 21.6147474,4.04576774 L21.6147474,2.75750968 C21.4030519,2.67447742 21.1953356,2.60989677 20.9915986,2.5604129 C20.7862699,2.51344516 20.5204567,2.48828387 20.1957509,2.48828387 C19.7078962,2.48828387 19.2972388,2.57383226 18.9653702,2.74325161 C18.63191,2.91267097 18.3772388,3.12486452 18.2013564,3.37731613 C18.0246782,3.62809032 17.9013218,3.89060645 17.8328789,4.16067097 C17.7596609,4.43073548 17.7254394,4.66976774 17.7254394,4.87525161 C17.7254394,5.0824129 17.7596609,5.32060645 17.8288997,5.59067097 C17.8989343,5.86157419 18.0230865,6.12660645 18.2029481,6.38576774 C18.3836055,6.64660645 18.6398685,6.86131613 18.9733287,7.03325161 C19.3059931,7.2051871 19.7134671,7.28989677 20.1957509,7.28989677 C20.4082422,7.28989677 20.6056125,7.27647742 20.7862699,7.24628387 C20.9661315,7.21860645 21.1276886,7.18254194 21.271737,7.13809032 C21.4165813,7.09447742 21.5534671,7.04583226 21.6823945,6.99467097 L21.6823945,5.70557419 Z M16.9375502,5.37596129 C16.9375502,5.77099355 16.8412526,6.11150968 16.6502491,6.40002581 C16.4584498,6.68686452 16.1918408,6.90828387 15.8496263,7.06176774 C15.5066159,7.2144129 15.1150588,7.28989677 14.6717716,7.28989677 C14.5484152,7.28989677 14.3964083,7.28150968 14.2165467,7.26557419 C14.0358893,7.2488 13.7979308,7.20267097 13.5002837,7.1271871 C13.2026367,7.05086452 12.8930519,6.93931613 12.5707336,6.79170323 L12.5707336,5.24344516 C12.871564,5.44221935 13.1676194,5.60576774 13.4596955,5.73576774 C13.7509758,5.86828387 14.0621522,5.93286452 14.3956125,5.93286452 C14.7020138,5.93286452 14.9009758,5.87834839 14.9917024,5.77099355 C15.0824291,5.6628 15.1269965,5.56215484 15.1269965,5.46821935 C15.1269965,5.29796129 15.0497993,5.15370323 14.894609,5.03628387 C14.7394187,4.91886452 14.5157855,4.79892903 14.2197301,4.6748 C13.8918408,4.52802581 13.6053356,4.36950968 13.3586228,4.19757419 C13.1111142,4.0248 12.9097647,3.81009032 12.7537785,3.55176774 C12.5962007,3.29344516 12.5190035,2.98815484 12.5190035,2.63505806 C12.5190035,2.29370323 12.5977924,1.98589677 12.7569619,1.71163871 C12.9137439,1.43570323 13.1556817,1.21596129 13.4803875,1.0524129 C13.8050934,0.887187097 14.2030173,0.805832258 14.6709758,0.805832258 C15.004436,0.805832258 15.3140208,0.840219355 15.5965467,0.907316129 C15.8798685,0.976090323 16.1130519,1.05325161 16.2976886,1.13963871 C16.4815294,1.22434839 16.6088651,1.29060645 16.677308,1.34009032 L16.677308,2.82209032 C16.431391,2.63757419 16.1600069,2.47067097 15.8583806,2.32557419 C15.558346,2.18047742 15.2352318,2.10667097 14.8930173,2.10667097 C14.6685882,2.10667097 14.5070311,2.1528 14.4051626,2.24421935 C14.30409,2.3348 14.2539516,2.44802581 14.2539516,2.58138065 C14.2539516,2.70550968 14.30409,2.81370323 14.4043668,2.90512258 C14.5054394,2.99654194 14.6845052,3.10725161 14.9423599,3.23809032 C15.4031557,3.46621935 15.7740208,3.67086452 16.0501799,3.85370323 C16.3263391,4.03654194 16.5436055,4.24705806 16.7019792,4.48609032 C16.8587612,4.72428387 16.9375502,5.0211871 16.9375502,5.37596129 Z" id="Fill-26" fill="#000000"></path>
                            </g>
                            <polygon id="Fill-29" fill="#4E2583" points="135.855031 2.39938065 132.288042 25.9872516 124.020775 25.9872516 127.507384 2.39938065"></polygon>
                            <polygon id="Fill-30" fill="#E03A3E" points="117.598761 2.39938065 114.145578 25.9864129 122.38101 25.9864129 125.948 2.39938065"></polygon>
                            <g id="Group-35" transform="translate(136.885813, 1.878710)" fill="#000000">
                                <path d="M60.542526,24.2511226 L68.7254325,0.877122581 L75.7686851,0.877122581 L77.306263,24.0397677 L71.3851557,24.0397677 L71.3716263,20.8811871 L67.5746367,20.8811871 L66.3768858,24.2494452 L60.542526,24.2511226 Z M69.1352941,15.9562839 L71.0111073,15.9546065 L70.9713149,8.45570323 L69.1352941,15.9562839 Z M32.539827,24.0640903 L38.603391,24.0817032 L39.6921107,16.4242839 C39.9276817,16.4242839 40.1648443,16.458671 40.3996194,16.458671 C45.3314879,16.458671 49.4531834,14.5833161 49.7930104,8.66621935 C50.1909343,1.72002581 46.1965744,0.877122581 44.1982007,0.664929032 L36.2047059,0.664929032 L32.539827,24.0640903 Z M41.6172664,5.9311871 L41.7963322,5.9311871 C42.9789619,5.9311871 43.9976471,6.14086452 43.9976471,8.03634839 C43.9976471,9.93267097 42.7935294,11.0741548 41.2973356,11.0741548 C41.1938754,11.0741548 41.0092388,11.0741548 40.7991349,11.0414452 L41.6172664,5.9311871 Z M78.2445675,24.0825419 L81.9492388,0.877122581 L87.9165052,0.877122581 L85.1588927,18.7743484 L90.1536332,18.7743484 L89.3585813,24.0406065 L78.2445675,24.0825419 Z M49.1237024,16.5903484 L48.2339446,22.9217677 C49.282872,23.8628 50.960519,24.5203484 52.873737,24.5027355 C57.5851557,24.4599613 61.9806228,21.7240903 61.9806228,16.6691871 C61.9806228,12.8807355 59.8915225,12.1032516 58.5027682,10.3528645 C57.5071626,9.07467097 56.9834948,8.33828387 56.9834948,7.19428387 C56.9834948,6.2171871 57.7857093,5.72067097 58.1852249,5.72067097 C59.1291003,5.72067097 61.0900692,6.1131871 62.2448443,7.15654194 L62.9802076,1.29815484 C61.5381315,0.353767742 59.1848097,0.0342193548 57.5851557,0.0342193548 C53.6218339,0.0342193548 50.5920415,4.45589677 50.5920415,7.4048 C50.5920415,9.79596129 51.2915917,11.2377032 52.7885813,13.0904129 C53.9433564,14.5028 55.4912803,15.1628645 55.4912803,16.5098323 C55.4912803,17.7561548 54.8362976,18.5638323 53.7881661,18.5638323 C52.6867128,18.5638323 50.3572664,17.9046065 49.1237024,16.5903484 Z M24.8153287,24.0817032 L28.2120069,0.455251613 L34.6074394,0.455251613 L30.8088581,24.0817032 L24.8153287,24.0817032 Z M12.587128,24.0397677 L23.6175779,24.0397677 L24.6147751,18.1436387 L19.8205882,18.1436387 L22.4174394,0.583574194 L16.3101038,0.583574194 L12.587128,24.0397677 Z M13.6257093,6.7724129 C13.0487197,6.40254194 12.5250519,6.2868 11.9217993,6.2868 C9.55972318,6.2868 6.83235294,8.87338065 6.83235294,13.7211226 C6.83235294,17.0910581 7.83193772,18.6493806 10.0810035,18.5982194 C10.5521453,18.5881548 11.0288581,18.5638323 11.7077163,18.5638323 L11.0288581,23.6187355 C9.82871972,24.2494452 8.43121107,24.2494452 8.43121107,24.2494452 C4.63422145,24.2494452 0.674083045,21.4372516 0.674083045,15.4438323 C0.674083045,6.15260645 5.83595156,0.173445161 11.5015917,0.173445161 C12.5497232,0.173445161 13.5206574,0.408283871 14.4382699,0.846929032 L13.6257093,6.7724129 Z" id="Fill-31"></path>
                                <path d="M89.8902076,2.41556774 C89.8902076,1.52066452 90.5810035,0.8606 91.3967474,0.8606 C92.2013495,0.8606 92.8913495,1.52066452 92.8913495,2.41556774 C92.8913495,3.32053548 92.2013495,3.9806 91.3967474,3.9806 C90.5810035,3.9806 89.8902076,3.32053548 89.8902076,2.41556774 Z M91.3967474,3.7206 C92.0636678,3.7206 92.5937024,3.16705161 92.5937024,2.41556774 C92.5937024,1.67750323 92.0636678,1.1206 91.3967474,1.1206 C90.7155017,1.1206 90.1886505,1.67750323 90.1886505,2.41556774 C90.1886505,3.16705161 90.7155017,3.7206 91.3967474,3.7206 Z M91.0815917,3.32053548 L90.8221453,3.32053548 L90.8221453,1.52066452 L91.4739446,1.52066452 C91.8774394,1.52066452 92.0764014,1.67750323 92.0764014,2.03227742 C92.0764014,2.35434194 91.8838062,2.49440645 91.6323183,2.52711613 L92.1185813,3.32053548 L91.8304844,3.32053548 L91.3792388,2.53969677 L91.0815917,2.53969677 L91.0815917,3.32053548 Z M91.3919723,2.30905161 C91.6108304,2.30905161 91.806609,2.29311613 91.806609,2.01550323 C91.806609,1.79324516 91.613218,1.75130968 91.4341522,1.75130968 L91.0815917,1.75130968 L91.0815917,2.30905161 L91.3919723,2.30905161 Z" id="Fill-33"></path>
                            </g>
                        </g>
                    </g>
                </g>
            </g>
        </g>
    </g>
</svg>