<svg width="187" height="26" fill="none" xmlns="http://www.w3.org/2000/svg"><path fill-rule="evenodd" clip-rule="evenodd" d="M180.759 1.153l-5.669 9.54-5.716-9.529-6.053-.002 8.99 14.732.011 9.404 5.369.004-.009-9.274 9.058-14.87-5.981-.005zm-25.656 20.265c-4.826.002-6.633-4.055-6.641-8.078-.001-4.225 1.806-8.282 6.633-8.285 4.822 0 6.631 4.052 6.64 8.273.002 4.032-1.814 8.084-6.632 8.09zM155.09.598c-7.553-.008-12.002 5.57-11.995 12.74a13.628 13.628 0 002.11 7.485l-9.035.029-.073-19.744-5.365.024.073 24.175 15.527-.063-.021-2.977c2.054 2.238 5.038 3.615 8.792 3.61 7.556 0 11.996-5.582 11.991-12.544.005-7.17-4.449-12.748-12.004-12.735zm-34.475 20.59l-5.747.007-.002-6.63 5.846-.005c2.291-.001 3.868.982 3.861 3.45.002 2.506-1.847 3.181-3.958 3.178zm-5.753-15.887l5.023-.003c1.91.003 3.694.471 3.701 2.773-.005 2.03-1.413 2.88-3.282 2.876l-5.439.009-.003-5.655zM95.019 15.998l3.183-8.86h.068l3.08 8.86h-6.331zm30.438-3.8c2.125-1.015 3.319-2.676 3.325-5.043-.005-4.492-3.152-5.986-7.807-5.98l-11.489.006.013 22.356-8.462-22.356-5.512.004-9.258 24.148 5.444-.003 1.907-5.38 9.135.003 1.847 5.373 5.574-.005-.001-.003 11.162-.003c4.408 0 8.61-2.104 8.613-7.005-.003-3.009-1.513-5.27-4.491-6.112zm-58.444 3.807l3.183-8.854h.066l3.087 8.852-6.337.002zM51.06 21.792c-2.866.005-5.397-1.246-5.405-4.449l-3.558-.004c-.532-4.747-5.514-5.77-7.202-6.187-6.11-1.55-7.278-1.792-7.281-3.648.008-2.03 1.985-2.742 3.693-2.739 2.569 0 4.646.735 4.822 3.644h5.178c.254 4.152 3.764 5.482 7.257 6.386 3.593.947 7.255 1.382 7.257 3.987-.002 2.465-2.871 3.009-4.761 3.01zm-41.51-5.768l3.18-8.854h.072l3.079 8.856-6.33-.002zM67.524 1.196l-6.508 16.981c-.008-5.48-5.473-6.596-7.252-7.029-6.124-1.56-7.284-1.782-7.286-3.653.003-2.03 1.985-2.74 3.693-2.735 2.57-.002 4.651.74 4.825 3.644h5.197c-.007-5.58-4.69-7.773-9.779-7.77-4.36-.004-9.003 2.309-9.119 7.116C40.93 2.664 36.433.638 31.538.643c-4.4 0-9.119 2.37-9.115 7.303 0 4.536 3.66 5.913 7.281 6.86 3.593.947 7.252 1.385 7.247 3.985 0 2.469-2.866 3.008-4.743 3.013-2.879.006-5.402-1.25-5.406-4.461h-5.133L15.56 1.215h-5.496L.81 25.365l5.432-.012 1.915-5.371h9.134l1.845 5.37h5.569l-.856-2.26c1.968 1.93 4.993 2.834 8.151 2.828 4.885.005 8.081-1.802 9.425-4.526 1.707 3.107 5.478 4.527 9.444 4.523 3.833 0 6.618-1.113 8.291-2.905l-.891 2.327h5.434l1.915-5.375 9.135-.007 1.844 5.377h5.577l-9.14-24.138h-5.51z" fill="#1A1A1A"/></svg>