<svg width="140" height="30" viewBox="0 0 140 30" fill="none" xmlns="http://www.w3.org/2000/svg">
<path d="M111.737 15.1993C111.871 12.3565 112.3 9.61383 113.673 7.08143C115.643 3.4485 118.658 1.22269 122.751 0.531398C125.881 0.00290883 128.955 0.224865 131.845 1.65345C134.742 3.0855 136.851 5.28819 138.04 8.29422C139.642 12.3451 139.819 16.5068 138.495 20.6292C136.861 25.7199 133.309 28.7908 127.961 29.6501C124.196 30.255 120.669 29.6347 117.509 27.3833C114.569 25.2878 112.961 22.3558 112.203 18.9263C111.934 17.7087 111.886 16.4431 111.737 15.1993ZM115.773 15.8081C115.819 16.3268 115.848 17.0998 115.961 17.8605C116.279 20.0038 117.063 21.9415 118.568 23.5575C120.885 26.0449 123.782 26.9335 127.075 26.4524C130.597 25.9379 133.05 23.9452 134.375 20.6554C135.619 17.569 135.569 14.38 134.899 11.1907C134.447 9.03806 133.399 7.18254 131.692 5.73391C130.061 4.34854 128.15 3.71172 126.028 3.5935C122.179 3.37908 118.2 5.58861 116.794 9.22985C116.005 11.2738 115.867 13.4058 115.773 15.8081Z" fill="#5E6E83"/>
<path d="M59.3019 16.3222C53.957 16.3222 48.7358 16.3222 43.4696 16.3222C43.4696 19.5223 43.4696 22.6757 43.4696 25.9334C43.7602 25.9334 44.0411 25.9334 44.3221 25.9334C49.6224 25.9334 54.9228 25.9462 60.2229 25.9178C60.9058 25.9141 61.1089 26.1114 61.0661 26.7718C61.0117 27.6087 61.0529 28.4518 61.0529 29.3315C53.864 29.3315 46.7517 29.3315 39.5897 29.3315C39.5897 19.8315 39.5897 10.3436 39.5897 0.802438C46.5048 0.802438 53.396 0.802438 60.3455 0.802438C60.3455 1.89413 60.3455 2.9867 60.3455 4.16106C54.7164 4.16106 49.1134 4.16106 43.4677 4.16106C43.4677 7.08275 43.4677 9.92364 43.4677 12.8734C43.7556 12.8734 44.0359 12.8734 44.3161 12.8734C49.0572 12.8734 53.7984 12.8839 58.5394 12.8606C59.1466 12.8577 59.3477 13.0284 59.3141 13.6336C59.2661 14.496 59.3019 15.363 59.3019 16.3222Z" fill="#5E6E83"/>
<path d="M75.2908 4.16394C75.2908 2.97579 75.2908 1.89877 75.2908 0.785816C82.8568 0.785816 90.3831 0.785816 97.9592 0.785816C97.9592 1.89276 97.9592 2.98865 97.9592 4.15289C94.8347 4.15289 91.7341 4.15289 88.5602 4.15289C88.5602 12.5695 88.5602 20.9188 88.5602 29.3201C87.2625 29.3201 86.0374 29.3201 84.6943 29.3201C84.6943 29.0286 84.6943 28.7272 84.6943 28.4257C84.6943 20.6175 84.6867 12.8094 84.7082 5.00126C84.71 4.3484 84.5525 4.13666 83.867 4.14756C81.2909 4.18858 78.7139 4.16399 76.1372 4.16394C75.8733 4.16394 75.6094 4.16394 75.2908 4.16394Z" fill="#5E6E83"/>
<path d="M0.414062 0.786501C1.65624 0.786501 2.8644 0.786501 4.15712 0.786501C4.15712 9.13589 4.15712 17.485 4.15712 25.9188C8.91642 25.9188 13.5927 25.9188 18.3237 25.9188C18.3237 27.0979 18.3237 28.1932 18.3237 29.3308C12.3654 29.3308 6.41982 29.3308 0.414062 29.3308C0.414062 19.8455 0.414062 10.3604 0.414062 0.786501Z" fill="#5E6E83"/>
<path d="M26.1083 0.778679C27.4344 0.778679 28.7161 0.778679 30.0532 0.778679C30.0766 0.984306 30.1052 1.16666 30.117 1.35014C30.3143 4.43508 29.8811 7.46287 29.2492 10.4688C29.2114 10.6486 28.9422 10.8918 28.7611 10.9098C28.1865 10.9667 27.6027 10.9308 27.0243 10.9308C26.2252 7.5778 25.7906 4.2493 26.1083 0.778679Z" fill="#5E6E83"/>
</svg>
